<?xml version="1.0" encoding="iso-8859-1"?>
<!-- Generator: Adobe Illustrator 16.0.0, SVG Export Plug-In . SVG Version: 6.00 Build 0)  -->
<!DOCTYPE svg PUBLIC "-//W3C//DTD SVG 1.1//EN" "http://www.w3.org/Graphics/SVG/1.1/DTD/svg11.dtd">
<svg version="1.1" id="Capa_1" xmlns="http://www.w3.org/2000/svg" xmlns:xlink="http://www.w3.org/1999/xlink" x="0px" y="0px"
	 width="425.064px" height="425.064px" viewBox="0 0 425.064 425.064" style="enable-background:new 0 0 425.064 425.064;"
	 xml:space="preserve">
<g>
	<g>
		<path d="M249.951,320.638c-2.989,0.705-4.091,4.096-4.091,4.096v14.979h-44.249v-14.979h3.102l0.32-33.643
			c-2.395-3.233-5.001-7.342-7.726-12.647c-11.914-23.139-14.287-31.999-23.135-31.646c-8.862,0.337-14.979,19.74-6.806,32.673
			c8.157,12.928,16.667,25.531,16.667,42.198c0,16.679-24.84,39.834-26.541,62.969c-1.703,23.154,24.165,42.903,64.668,40.174
			c40.495-2.729,70.118-22.125,66.716-41.873c-3.414-19.749-22.57-30.06-22.357-49.127c0.225-19.06,13.846-19.288,12.482-27.908
			C277.635,297.279,262.947,317.632,249.951,320.638z M245.86,381.014h-44.249v-20.434h44.249V381.014z"/>
		<path d="M136.397,383.283c3.006,24.609,18.998,34.921,36.017,38.523c-4.857-2.777-9.183-6.012-12.706-9.799
			c-7.745-8.327-11.565-18.734-10.796-29.33c1.044-14.07,8.985-27.354,15.99-39.085c5.182-8.655,10.538-17.616,10.538-23.291
			c0-13.517-6.901-24.425-14.227-35.986l-1.176-1.855c-7.318-11.573-5.795-26.048-1.289-34.612
			c3.424-6.5,8.766-10.359,14.685-10.587l0.794-0.017c11.964,0,16.621,9.401,24.337,24.979c1.611,3.258,3.446,6.953,5.596,11.116
			c0.323,0.629,0.629,1.194,0.952,1.779l2.034-207.078l5.399,4.132l0.188-0.064l-0.282,30.014h17.078l-1.034-34.749l11.284-3.38
			l-0.332-2.821l7.137,1.256V51.986h-8.211l-0.48-4.082h8.684l-1.142-11.822l-8.829,0.87L232.287,0l-19.749,14.982l-5.007,20.896
			l-14.517-4.32l-3.409,10.217l16.204,1.245l-1.978,8.269l-14.227-1.805l-2.038,8.173l14.443,1.214l-1.058,4.428l2.763,2.112
			c0.116,22.927-0.236,135.461-17.939,161.714c0,0-6.201,0.132-13.857,0.276c-7.654,0.16-20.614,2.957-26.786,9.036
			c-5.626,5.538-10.463,13.786-8.165,24.971c4.769,23.139,24.503,60.58,21.105,72.149
			C154.683,345.156,132.418,350.594,136.397,383.283z"/>
		<polygon points="211.566,191.066 232.158,191.066 231.661,174.281 211.747,174.281 		"/>
		<polygon points="211.344,213.311 232.815,213.311 232.319,196.514 211.517,196.514 		"/>
		<polygon points="211.134,235.544 233.478,235.544 232.964,218.753 211.298,218.753 		"/>
		<polygon points="210.168,333.939 236.366,333.939 235.601,307.698 210.961,307.698 		"/>
		<polygon points="210.961,257.774 234.122,257.774 233.621,240.987 211.071,240.987 		"/>
		<polygon points="210.961,280.007 234.779,280.007 234.282,263.228 210.961,263.228 		"/>
		<polygon points="210.961,302.249 235.44,302.249 234.939,285.465 210.961,285.465 		"/>
		<polygon points="211.793,168.827 231.493,168.827 231.001,152.042 211.943,152.042 		"/>
		<polygon points="212.39,107.56 212.226,124.354 230.171,124.354 229.698,107.56 		"/>
		<polygon points="212.003,146.594 230.832,146.594 230.343,129.801 212.176,129.801 		"/>
	</g>
</g>
<g>
</g>
<g>
</g>
<g>
</g>
<g>
</g>
<g>
</g>
<g>
</g>
<g>
</g>
<g>
</g>
<g>
</g>
<g>
</g>
<g>
</g>
<g>
</g>
<g>
</g>
<g>
</g>
<g>
</g>
</svg>
